<svg width="42" height="27" viewBox="0 0 42 27" fill="none" xmlns="http://www.w3.org/2000/svg">
<path d="M41.5803 3.54663L39.4763 1.39262C39.1959 1.10498 38.8729 0.961609 38.5078 0.961609C38.1436 0.961609 37.8208 1.10498 37.5404 1.39262L21.0002 18.3257L4.46077 1.39307C4.18026 1.10543 3.85745 0.962061 3.49276 0.962061C3.12794 0.962061 2.80512 1.10543 2.52476 1.39307L0.420989 3.54723C0.140035 3.83427 0 4.16478 0 4.53829C0 4.9115 0.140477 5.24201 0.420989 5.52905L20.0322 25.6077C20.3126 25.8948 20.6355 26.0384 21.0002 26.0384C21.3649 26.0384 21.6873 25.8948 21.9675 25.6077L41.5803 5.52905C41.8607 5.24185 42 4.91135 42 4.53829C42 4.16478 41.8607 3.83427 41.5803 3.54663Z" fill="black"/>
</svg>
