<svg width="13" height="14" viewBox="0 0 13 14" fill="none" xmlns="http://www.w3.org/2000/svg">
<path d="M12.9675 12.0758C12.9104 11.7926 12.6415 11.6108 12.3669 11.6697C12.0923 11.7287 11.916 12.0061 11.9732 12.2893C12.0062 12.4525 11.9669 12.6197 11.8657 12.7482C11.807 12.8226 11.6762 12.9474 11.4594 12.9474H1.54151C1.32473 12.9474 1.19394 12.8225 1.13529 12.7482C1.034 12.6197 0.994801 12.4525 1.02773 12.2893C1.55474 9.67816 3.78747 7.77074 6.36586 7.70642C6.41052 7.7082 6.45539 7.70909 6.50048 7.70909C6.54573 7.70909 6.59077 7.70817 6.63561 7.70639C8.45185 7.75133 10.1306 8.70028 11.1472 10.2642C11.3034 10.5046 11.6188 10.5687 11.8518 10.4076C12.0847 10.2465 12.1469 9.92111 11.9907 9.68083C11.1575 8.39892 9.94756 7.46676 8.56799 6.99838C9.40867 6.34807 9.9536 5.31197 9.9536 4.14705C9.9536 2.18295 8.40455 0.585014 6.50048 0.585014C4.59641 0.585014 3.04735 2.18295 3.04735 4.14705C3.04735 5.31267 3.59295 6.34933 4.43452 6.99959C3.66346 7.26145 2.93995 7.66891 2.30671 8.2062C1.14555 9.19144 0.338199 10.5657 0.0334355 12.0758C-0.062084 12.549 0.0523516 13.035 0.34734 13.4092C0.640881 13.7815 1.07615 13.995 1.54151 13.995H11.4594C11.9248 13.995 12.3601 13.7815 12.6536 13.4092C12.9486 13.035 13.063 12.549 12.9675 12.0758ZM4.06298 4.14705C4.06298 2.76061 5.15643 1.63267 6.50048 1.63267C7.84453 1.63267 8.93798 2.76061 8.93798 4.14705C8.93798 5.4908 7.9108 6.59173 6.62385 6.65823C6.5828 6.65745 6.54166 6.65705 6.50048 6.65705C6.4595 6.65705 6.41852 6.65747 6.37759 6.65826C5.09041 6.59202 4.06298 5.49099 4.06298 4.14705Z" fill="white"/>
</svg>
